<svg width="21" height="25" viewBox="0 0 21 25" fill="none" xmlns="http://www.w3.org/2000/svg">
<circle cx="10.5088" cy="6.49112" r="5.57437" fill="#67C4A7" stroke="#939393" stroke-width="1.5" stroke-linecap="round" stroke-linejoin="round"/>
<path fill-rule="evenodd" clip-rule="evenodd" d="M1.66671 19.8182C1.66521 19.4264 1.75285 19.0393 1.923 18.6863C2.45694 17.6184 3.96266 17.0524 5.21209 16.7961C6.11318 16.6038 7.02671 16.4754 7.94588 16.4117C9.64767 16.2622 11.3593 16.2622 13.0611 16.4117C13.9802 16.4761 14.8936 16.6045 15.7949 16.7961C17.0443 17.0524 18.55 17.565 19.0839 18.6863C19.4261 19.4059 19.4261 20.2413 19.0839 20.9609C18.55 22.0822 17.0443 22.5947 15.7949 22.8404C14.8948 23.0406 13.981 23.1727 13.0611 23.2355C11.6759 23.3529 10.2844 23.3743 8.8963 23.2995C8.57594 23.2995 8.26625 23.2995 7.94588 23.2355C7.02942 23.1735 6.11906 23.0414 5.22277 22.8404C3.96266 22.5947 2.46762 22.0822 1.923 20.9609C1.75372 20.6038 1.66616 20.2134 1.66671 19.8182Z" fill="#67C4A7" stroke="#939393" stroke-width="1.5" stroke-linecap="round" stroke-linejoin="round"/>
</svg>
